<svg xmlns="http://www.w3.org/2000/svg" xmlns:xlink="http://www.w3.org/1999/xlink" width="500" zoomAndPan="magnify" viewBox="0 0 375 374.999991" height="500" preserveAspectRatio="xMidYMid meet" version="1.0"><defs><g/><clipPath id="62a5dd6ee4"><path d="M 102.683594 49.007812 L 270.683594 49.007812 L 270.683594 325.757812 L 102.683594 325.757812 Z M 102.683594 49.007812 " clip-rule="nonzero"/></clipPath><clipPath id="2a292b0266"><path d="M 177 164 L 198 164 L 198 211.839844 L 177 211.839844 Z M 177 164 " clip-rule="nonzero"/></clipPath><clipPath id="5604cf875e"><path d="M 177 103.089844 L 198 103.089844 L 198 151 L 177 151 Z M 177 103.089844 " clip-rule="nonzero"/></clipPath><clipPath id="371a180a35"><path d="M 194 146 L 241.972656 146 L 241.972656 168 L 194 168 Z M 194 146 " clip-rule="nonzero"/></clipPath><clipPath id="dc5e2af6d9"><path d="M 133.222656 146 L 181 146 L 181 168 L 133.222656 168 Z M 133.222656 146 " clip-rule="nonzero"/></clipPath><clipPath id="3cead0ac92"><rect x="0" width="81" y="0" height="19"/></clipPath></defs><rect x="-37.5" width="450" fill="#ffffff" y="-37.499999" height="449.999989" fill-opacity="1"/><rect x="-37.5" width="450" fill="#5b8c6b" y="-37.499999" height="449.999989" fill-opacity="1"/><g clip-path="url(#62a5dd6ee4)"><path fill="#ebebeb" d="M 186.78125 325.980469 C 140.46875 325.980469 102.726562 288.238281 102.726562 241.925781 L 102.726562 133.066406 C 102.726562 86.753906 140.46875 49.007812 186.78125 49.007812 C 233.09375 49.007812 270.839844 86.753906 270.839844 133.066406 L 270.839844 241.925781 C 270.839844 288.320312 233.09375 325.980469 186.78125 325.980469 Z M 186.78125 50.246094 C 141.128906 50.246094 103.960938 87.410156 103.960938 133.066406 L 103.960938 241.925781 C 103.960938 287.582031 141.128906 324.746094 186.78125 324.746094 C 232.4375 324.746094 269.601562 287.582031 269.601562 241.925781 L 269.601562 133.066406 C 269.601562 87.410156 232.4375 50.246094 186.78125 50.246094 Z M 186.78125 50.246094 " fill-opacity="1" fill-rule="nonzero"/></g><g clip-path="url(#2a292b0266)"><path fill="#ebebeb" d="M 194.617188 183.023438 C 189.546875 172.761719 187.882812 165.695312 187.558594 164.167969 C 187.527344 164.167969 187.5 164.171875 187.46875 164.171875 C 187.457031 164.171875 187.445312 164.167969 187.433594 164.167969 C 187.109375 165.703125 185.445312 172.769531 180.378906 183.023438 C 174.628906 194.664062 175.722656 211.644531 187.496094 211.644531 L 187.5 211.644531 C 199.273438 211.644531 200.367188 194.664062 194.617188 183.023438 Z M 194.617188 183.023438 " fill-opacity="1" fill-rule="nonzero"/></g><g clip-path="url(#5604cf875e)"><path fill="#ebebeb" d="M 180.378906 131.710938 C 185.449219 141.972656 187.113281 149.039062 187.4375 150.570312 C 187.464844 150.566406 187.496094 150.566406 187.527344 150.566406 C 187.539062 150.566406 187.550781 150.566406 187.558594 150.566406 C 187.886719 149.03125 189.550781 141.96875 194.617188 131.710938 C 200.367188 120.074219 199.273438 103.09375 187.5 103.089844 L 187.496094 103.089844 C 175.722656 103.09375 174.628906 120.074219 180.378906 131.710938 Z M 180.378906 131.710938 " fill-opacity="1" fill-rule="nonzero"/></g><g clip-path="url(#371a180a35)"><path fill="#ebebeb" d="M 213.15625 150.25 C 202.890625 155.320312 195.824219 156.984375 194.296875 157.304688 C 194.296875 157.335938 194.300781 157.367188 194.300781 157.398438 C 194.300781 157.410156 194.300781 157.417969 194.300781 157.429688 C 195.835938 157.753906 202.898438 159.421875 213.15625 164.488281 C 224.792969 170.238281 241.773438 169.144531 241.773438 157.371094 L 241.773438 157.367188 C 241.773438 145.59375 224.792969 144.496094 213.15625 150.25 Z M 213.15625 150.25 " fill-opacity="1" fill-rule="nonzero"/></g><g clip-path="url(#dc5e2af6d9)"><path fill="#ebebeb" d="M 161.839844 164.488281 C 172.105469 159.417969 179.171875 157.753906 180.699219 157.429688 C 180.699219 157.398438 180.695312 157.367188 180.695312 157.339844 C 180.695312 157.328125 180.695312 157.316406 180.695312 157.304688 C 179.160156 156.980469 172.097656 155.316406 161.839844 150.25 C 150.203125 144.496094 133.222656 145.59375 133.222656 157.367188 L 133.222656 157.371094 C 133.222656 169.144531 150.203125 170.238281 161.839844 164.488281 Z M 161.839844 164.488281 " fill-opacity="1" fill-rule="nonzero"/></g><path fill="#ebebeb" d="M 206.238281 168.414062 C 197.609375 165.496094 192.695312 162.453125 191.65625 161.773438 C 191.640625 161.792969 191.625 161.8125 191.605469 161.828125 C 191.601562 161.835938 191.59375 161.839844 191.585938 161.847656 C 192.269531 162.894531 195.304688 167.804688 198.226562 176.429688 C 201.539062 186.214844 211.710938 195.152344 218.339844 188.527344 C 224.964844 181.898438 216.027344 171.730469 206.238281 168.414062 Z M 206.238281 168.414062 " fill-opacity="1" fill-rule="nonzero"/><path fill="#ebebeb" d="M 169.351562 147.554688 C 177.980469 150.472656 182.890625 153.515625 183.933594 154.195312 C 183.949219 154.175781 183.964844 154.15625 183.984375 154.140625 C 183.988281 154.132812 183.996094 154.128906 184.003906 154.121094 C 183.320312 153.074219 180.28125 148.164062 177.363281 139.539062 C 174.050781 129.753906 163.878906 120.816406 157.25 127.441406 C 150.625 134.070312 159.5625 144.238281 169.351562 147.554688 Z M 169.351562 147.554688 " fill-opacity="1" fill-rule="nonzero"/><path fill="#ebebeb" d="M 198.226562 139.539062 C 195.304688 148.167969 192.265625 153.082031 191.585938 154.125 C 191.601562 154.140625 191.621094 154.15625 191.640625 154.171875 C 191.644531 154.179688 191.652344 154.1875 191.65625 154.191406 C 192.703125 153.511719 197.617188 150.472656 206.238281 147.554688 C 216.023438 144.238281 224.964844 134.070312 218.339844 127.441406 C 211.710938 120.816406 201.539062 129.753906 198.226562 139.539062 Z M 198.226562 139.539062 " fill-opacity="1" fill-rule="nonzero"/><path fill="#ebebeb" d="M 177.363281 176.429688 C 180.285156 167.800781 183.324219 162.886719 184.003906 161.84375 C 183.984375 161.828125 183.96875 161.8125 183.949219 161.796875 C 183.941406 161.789062 183.9375 161.78125 183.933594 161.777344 C 182.886719 162.457031 177.972656 165.496094 169.351562 168.414062 C 159.5625 171.730469 150.625 181.898438 157.25 188.527344 C 163.878906 195.152344 174.050781 186.214844 177.363281 176.429688 Z M 177.363281 176.429688 " fill-opacity="1" fill-rule="nonzero"/><text x="187.5" y="243" text-anchor="middle" font-family="'DM Serif Display', Georgia, serif" font-size="24" fill="#2c2c2c" font-weight="400">HealthPlan</text>
<text x="187.5" y="273" text-anchor="middle" font-family="'DM Serif Display', Georgia, serif" font-size="24" fill="#2c2c2c" font-weight="400">Moms</text>
<text x="187.5" y="293" text-anchor="middle" font-family="'DM Serif Display', Georgia, serif" font-size="7" fill="#2c2c2c" letter-spacing="3" font-weight="400">COVERAGE MADE SIMPLE</text>
</svg>