<svg xmlns="http://www.w3.org/2000/svg" xmlns:xlink="http://www.w3.org/1999/xlink" width="500" zoomAndPan="magnify" viewBox="0 0 375 374.999991" height="500" preserveAspectRatio="xMidYMid meet" version="1.0"><defs><g/><clipPath id="62a5dd6ee4"><path d="M 102.683594 49.007812 L 270.683594 49.007812 L 270.683594 325.757812 L 102.683594 325.757812 Z M 102.683594 49.007812 " clip-rule="nonzero"/></clipPath><clipPath id="2a292b0266"><path d="M 177 164 L 198 164 L 198 211.839844 L 177 211.839844 Z M 177 164 " clip-rule="nonzero"/></clipPath><clipPath id="5604cf875e"><path d="M 177 103.089844 L 198 103.089844 L 198 151 L 177 151 Z M 177 103.089844 " clip-rule="nonzero"/></clipPath><clipPath id="371a180a35"><path d="M 194 146 L 241.972656 146 L 241.972656 168 L 194 168 Z M 194 146 " clip-rule="nonzero"/></clipPath><clipPath id="dc5e2af6d9"><path d="M 133.222656 146 L 181 146 L 181 168 L 133.222656 168 Z M 133.222656 146 " clip-rule="nonzero"/></clipPath><clipPath id="3cead0ac92"><rect x="0" width="81" y="0" height="19"/></clipPath></defs><rect x="-37.5" width="450" fill="#ffffff" y="-37.499999" height="449.999989" fill-opacity="1"/><rect x="-37.5" width="450" fill="#5b8c6b" y="-37.499999" height="449.999989" fill-opacity="1"/><g clip-path="url(#62a5dd6ee4)"><path fill="#ebebeb" d="M 186.78125 325.980469 C 140.46875 325.980469 102.726562 288.238281 102.726562 241.925781 L 102.726562 133.066406 C 102.726562 86.753906 140.46875 49.007812 186.78125 49.007812 C 233.09375 49.007812 270.839844 86.753906 270.839844 133.066406 L 270.839844 241.925781 C 270.839844 288.320312 233.09375 325.980469 186.78125 325.980469 Z M 186.78125 50.246094 C 141.128906 50.246094 103.960938 87.410156 103.960938 133.066406 L 103.960938 241.925781 C 103.960938 287.582031 141.128906 324.746094 186.78125 324.746094 C 232.4375 324.746094 269.601562 287.582031 269.601562 241.925781 L 269.601562 133.066406 C 269.601562 87.410156 232.4375 50.246094 186.78125 50.246094 Z M 186.78125 50.246094 " fill-opacity="1" fill-rule="nonzero"/></g><g clip-path="url(#2a292b0266)"><path fill="#ebebeb" d="M 194.617188 183.023438 C 189.546875 172.761719 187.882812 165.695312 187.558594 164.167969 C 187.527344 164.167969 187.5 164.171875 187.46875 164.171875 C 187.457031 164.171875 187.445312 164.167969 187.433594 164.167969 C 187.109375 165.703125 185.445312 172.769531 180.378906 183.023438 C 174.628906 194.664062 175.722656 211.644531 187.496094 211.644531 L 187.5 211.644531 C 199.273438 211.644531 200.367188 194.664062 194.617188 183.023438 Z M 194.617188 183.023438 " fill-opacity="1" fill-rule="nonzero"/></g><g clip-path="url(#5604cf875e)"><path fill="#ebebeb" d="M 180.378906 131.710938 C 185.449219 141.972656 187.113281 149.039062 187.4375 150.570312 C 187.464844 150.566406 187.496094 150.566406 187.527344 150.566406 C 187.539062 150.566406 187.550781 150.566406 187.558594 150.566406 C 187.886719 149.03125 189.550781 141.96875 194.617188 131.710938 C 200.367188 120.074219 199.273438 103.09375 187.5 103.089844 L 187.496094 103.089844 C 175.722656 103.09375 174.628906 120.074219 180.378906 131.710938 Z M 180.378906 131.710938 " fill-opacity="1" fill-rule="nonzero"/></g><g clip-path="url(#371a180a35)"><path fill="#ebebeb" d="M 213.15625 150.25 C 202.890625 155.320312 195.824219 156.984375 194.296875 157.304688 C 194.296875 157.335938 194.300781 157.367188 194.300781 157.398438 C 194.300781 157.410156 194.300781 157.417969 194.300781 157.429688 C 195.835938 157.753906 202.898438 159.421875 213.15625 164.488281 C 224.792969 170.238281 241.773438 169.144531 241.773438 157.371094 L 241.773438 157.367188 C 241.773438 145.59375 224.792969 144.496094 213.15625 150.25 Z M 213.15625 150.25 " fill-opacity="1" fill-rule="nonzero"/></g><g clip-path="url(#dc5e2af6d9)"><path fill="#ebebeb" d="M 161.839844 164.488281 C 172.105469 159.417969 179.171875 157.753906 180.699219 157.429688 C 180.699219 157.398438 180.695312 157.367188 180.695312 157.339844 C 180.695312 157.328125 180.695312 157.316406 180.695312 157.304688 C 179.160156 156.980469 172.097656 155.316406 161.839844 150.25 C 150.203125 144.496094 133.222656 145.59375 133.222656 157.367188 L 133.222656 157.371094 C 133.222656 169.144531 150.203125 170.238281 161.839844 164.488281 Z M 161.839844 164.488281 " fill-opacity="1" fill-rule="nonzero"/></g><path fill="#ebebeb" d="M 206.238281 168.414062 C 197.609375 165.496094 192.695312 162.453125 191.65625 161.773438 C 191.640625 161.792969 191.625 161.8125 191.605469 161.828125 C 191.601562 161.835938 191.59375 161.839844 191.585938 161.847656 C 192.269531 162.894531 195.304688 167.804688 198.226562 176.429688 C 201.539062 186.214844 211.710938 195.152344 218.339844 188.527344 C 224.964844 181.898438 216.027344 171.730469 206.238281 168.414062 Z M 206.238281 168.414062 " fill-opacity="1" fill-rule="nonzero"/><path fill="#ebebeb" d="M 169.351562 147.554688 C 177.980469 150.472656 182.890625 153.515625 183.933594 154.195312 C 183.949219 154.175781 183.964844 154.15625 183.984375 154.140625 C 183.988281 154.132812 183.996094 154.128906 184.003906 154.121094 C 183.320312 153.074219 180.28125 148.164062 177.363281 139.539062 C 174.050781 129.753906 163.878906 120.816406 157.25 127.441406 C 150.625 134.070312 159.5625 144.238281 169.351562 147.554688 Z M 169.351562 147.554688 " fill-opacity="1" fill-rule="nonzero"/><path fill="#ebebeb" d="M 198.226562 139.539062 C 195.304688 148.167969 192.265625 153.082031 191.585938 154.125 C 191.601562 154.140625 191.621094 154.15625 191.640625 154.171875 C 191.644531 154.179688 191.652344 154.1875 191.65625 154.191406 C 192.703125 153.511719 197.617188 150.472656 206.238281 147.554688 C 216.023438 144.238281 224.964844 134.070312 218.339844 127.441406 C 211.710938 120.816406 201.539062 129.753906 198.226562 139.539062 Z M 198.226562 139.539062 " fill-opacity="1" fill-rule="nonzero"/><path fill="#ebebeb" d="M 177.363281 176.429688 C 180.285156 167.800781 183.324219 162.886719 184.003906 161.84375 C 183.984375 161.828125 183.96875 161.8125 183.949219 161.796875 C 183.941406 161.789062 183.9375 161.78125 183.933594 161.777344 C 182.886719 162.457031 177.972656 165.496094 169.351562 168.414062 C 159.5625 171.730469 150.625 181.898438 157.25 188.527344 C 163.878906 195.152344 174.050781 186.214844 177.363281 176.429688 Z M 177.363281 176.429688 " fill-opacity="1" fill-rule="nonzero"/><g fill="#2c2c2c" fill-opacity="1"><g transform="translate(134.055039, 243.456577)"><g><path d="M 6.15625 -15.59375 L 6 -15.59375 C 5.875 -14.28125 5.660156 -11.804688 5.359375 -8.171875 C 5.066406 -4.546875 4.921875 -2.570312 4.921875 -2.25 C 4.921875 -1.625 5.226562 -1.3125 5.84375 -1.3125 L 7.078125 -1.34375 L 7.140625 -1.234375 L 6.875 0.125 C 6.65625 0.101562 6.257812 0.078125 5.6875 0.046875 C 5.113281 0.015625 4.535156 0 3.953125 0 C 3.453125 0 2.9375 0.03125 2.40625 0.09375 C 1.882812 0.164062 1.539062 0.210938 1.375 0.234375 L 1.53125 -1.140625 C 2.164062 -1.222656 2.625 -1.425781 2.90625 -1.75 C 3.1875 -2.082031 3.367188 -2.648438 3.453125 -3.453125 C 3.648438 -5.328125 3.910156 -7.859375 4.234375 -11.046875 C 4.566406 -14.242188 4.734375 -16.03125 4.734375 -16.40625 C 4.734375 -16.925781 4.53125 -17.316406 4.125 -17.578125 C 3.71875 -17.835938 3.0625 -18 2.15625 -18.0625 L 2.0625 -18.203125 L 2.3125 -19.265625 C 2.570312 -19.242188 3.082031 -19.210938 3.84375 -19.171875 C 4.601562 -19.128906 5.179688 -19.109375 5.578125 -19.109375 C 5.941406 -19.109375 6.335938 -19.125 6.765625 -19.15625 C 7.191406 -19.1875 7.476562 -19.210938 7.625 -19.234375 C 8.414062 -16.648438 9.1875 -14.253906 9.9375 -12.046875 C 10.6875 -9.835938 11.300781 -8.082031 11.78125 -6.78125 C 12.269531 -5.476562 12.570312 -4.664062 12.6875 -4.34375 L 12.84375 -4.34375 C 13.125 -5.082031 13.765625 -6.84375 14.765625 -9.625 C 15.765625 -12.40625 16.851562 -15.585938 18.03125 -19.171875 C 18.03125 -19.191406 18.300781 -19.179688 18.84375 -19.140625 L 20.015625 -19.109375 C 20.390625 -19.109375 20.957031 -19.132812 21.71875 -19.1875 C 22.476562 -19.238281 22.988281 -19.273438 23.25 -19.296875 L 23.3125 -19.171875 L 23.15625 -18.0625 C 22.300781 -17.957031 21.691406 -17.78125 21.328125 -17.53125 C 20.972656 -17.28125 20.796875 -16.90625 20.796875 -16.40625 C 20.796875 -15.96875 20.882812 -14.332031 21.0625 -11.5 C 21.238281 -8.675781 21.40625 -6.234375 21.5625 -4.171875 C 21.664062 -3.347656 21.765625 -2.738281 21.859375 -2.34375 C 21.960938 -1.957031 22.101562 -1.6875 22.28125 -1.53125 C 22.46875 -1.382812 22.722656 -1.3125 23.046875 -1.3125 C 23.222656 -1.3125 23.390625 -1.320312 23.546875 -1.34375 C 23.710938 -1.363281 23.820312 -1.375 23.875 -1.375 L 23.9375 -1.265625 L 23.671875 0.09375 C 23.472656 0.0703125 23.097656 0.0507812 22.546875 0.03125 C 21.992188 0.0078125 21.414062 0 20.8125 0 C 20.28125 0 19.675781 0.03125 19 0.09375 C 18.332031 0.164062 17.898438 0.210938 17.703125 0.234375 L 17.8125 -1.140625 C 18.4375 -1.222656 18.890625 -1.382812 19.171875 -1.625 C 19.453125 -1.863281 19.59375 -2.203125 19.59375 -2.640625 C 19.59375 -3.054688 19.445312 -5.003906 19.15625 -8.484375 C 18.863281 -11.960938 18.664062 -14.332031 18.5625 -15.59375 L 18.421875 -15.59375 L 12.625 0.359375 L 11.90625 0.5625 Z M 6.15625 -15.59375 "/></g></g></g><g fill="#2c2c2c" fill-opacity="1"><g transform="translate(157.665022, 243.456577)"><g><path d="M 7.375 0.359375 C 6.132812 0.359375 5.035156 0.0820312 4.078125 -0.46875 C 3.117188 -1.019531 2.378906 -1.796875 1.859375 -2.796875 C 1.335938 -3.804688 1.078125 -4.960938 1.078125 -6.265625 C 1.078125 -7.609375 1.378906 -8.867188 1.984375 -10.046875 C 2.597656 -11.222656 3.414062 -12.160156 4.4375 -12.859375 C 5.457031 -13.566406 6.546875 -13.921875 7.703125 -13.921875 C 9.171875 -13.921875 10.285156 -13.550781 11.046875 -12.8125 C 11.804688 -12.070312 12.1875 -10.988281 12.1875 -9.5625 C 12.1875 -8.988281 12.125 -8.5 12 -8.09375 L 11.609375 -7.734375 L 3.328125 -7.734375 C 3.304688 -5.796875 3.691406 -4.300781 4.484375 -3.25 C 5.273438 -2.207031 6.378906 -1.6875 7.796875 -1.6875 C 8.921875 -1.6875 10.140625 -1.992188 11.453125 -2.609375 L 11.640625 -2.546875 L 11.96875 -1.6875 C 11.25 -1.164062 10.453125 -0.691406 9.578125 -0.265625 C 8.710938 0.148438 7.976562 0.359375 7.375 0.359375 Z M 8.875 -9.125 C 9.175781 -9.164062 9.375 -9.234375 9.46875 -9.328125 C 9.570312 -9.429688 9.625 -9.632812 9.625 -9.9375 C 9.625 -10.726562 9.410156 -11.332031 8.984375 -11.75 C 8.554688 -12.175781 7.941406 -12.390625 7.140625 -12.390625 C 6.203125 -12.390625 5.394531 -12.066406 4.71875 -11.421875 C 4.050781 -10.785156 3.628906 -9.925781 3.453125 -8.84375 Z M 8.875 -9.125 "/></g></g></g><g fill="#2c2c2c" fill-opacity="1"><g transform="translate(169.905015, 243.456577)"><g><path d="M 13.5 0.359375 C 11.9375 0.359375 11.046875 -0.347656 10.828125 -1.765625 L 10.625 -1.859375 C 8.539062 -0.441406 7.289062 0.265625 6.875 0.265625 C 5.726562 0.265625 4.710938 0.00390625 3.828125 -0.515625 C 2.953125 -1.046875 2.273438 -1.789062 1.796875 -2.75 C 1.316406 -3.71875 1.078125 -4.820312 1.078125 -6.0625 C 1.078125 -7.476562 1.410156 -8.785156 2.078125 -9.984375 C 2.753906 -11.191406 3.664062 -12.148438 4.8125 -12.859375 C 5.96875 -13.566406 7.210938 -13.921875 8.546875 -13.921875 C 9.191406 -13.921875 9.882812 -13.878906 10.625 -13.796875 L 10.625 -18.78125 C 10.625 -19.863281 10.253906 -20.40625 9.515625 -20.40625 C 9.367188 -20.40625 9.210938 -20.390625 9.046875 -20.359375 C 8.890625 -20.328125 8.796875 -20.300781 8.765625 -20.28125 L 8.875 -21.390625 C 9.738281 -21.503906 10.628906 -21.660156 11.546875 -21.859375 C 12.472656 -22.066406 13.0625 -22.203125 13.3125 -22.265625 L 13.5 -21.875 C 13.28125 -21.53125 13.082031 -19.414062 12.90625 -15.53125 C 12.738281 -11.65625 12.65625 -7.53125 12.65625 -3.15625 C 12.65625 -2.707031 12.765625 -2.363281 12.984375 -2.125 C 13.203125 -1.882812 13.503906 -1.765625 13.890625 -1.765625 C 14.171875 -1.765625 14.445312 -1.816406 14.71875 -1.921875 C 14.988281 -2.035156 15.207031 -2.148438 15.375 -2.265625 C 15.539062 -2.390625 15.644531 -2.472656 15.6875 -2.515625 L 16.109375 -2.046875 C 16.046875 -1.941406 15.894531 -1.722656 15.65625 -1.390625 C 15.414062 -1.066406 15.097656 -0.722656 14.703125 -0.359375 C 14.316406 0.00390625 13.914062 0.242188 13.5 0.359375 Z M 7.34375 -1.6875 C 7.769531 -1.6875 8.226562 -1.804688 8.71875 -2.046875 C 9.207031 -2.285156 9.617188 -2.53125 9.953125 -2.78125 C 10.296875 -3.03125 10.519531 -3.191406 10.625 -3.265625 L 10.625 -11.484375 C 10.5625 -11.523438 10.410156 -11.597656 10.171875 -11.703125 C 9.929688 -11.816406 9.59375 -11.925781 9.15625 -12.03125 C 8.726562 -12.132812 8.242188 -12.1875 7.703125 -12.1875 C 6.367188 -12.1875 5.316406 -11.726562 4.546875 -10.8125 C 3.773438 -9.90625 3.390625 -8.660156 3.390625 -7.078125 C 3.390625 -6.078125 3.5625 -5.164062 3.90625 -4.34375 C 4.257812 -3.53125 4.738281 -2.882812 5.34375 -2.40625 C 5.957031 -1.925781 6.625 -1.6875 7.34375 -1.6875 Z M 7.34375 -1.6875 "/></g></g></g><g fill="#2c2c2c" fill-opacity="1"><g transform="translate(184.815007, 243.456577)"><g><path d="M 1.4375 -0.875 C 2.039062 -1.03125 2.472656 -1.265625 2.734375 -1.578125 C 2.992188 -1.890625 3.125 -2.300781 3.125 -2.8125 L 3.125 -10.4375 C 3.125 -11.519531 2.753906 -12.0625 2.015625 -12.0625 C 1.867188 -12.0625 1.710938 -12.046875 1.546875 -12.015625 C 1.390625 -11.984375 1.296875 -11.957031 1.265625 -11.9375 L 1.375 -13.046875 C 2.21875 -13.171875 3.082031 -13.332031 3.96875 -13.53125 C 4.863281 -13.726562 5.441406 -13.859375 5.703125 -13.921875 L 5.84375 -13.5625 C 5.664062 -13.144531 5.503906 -11.859375 5.359375 -9.703125 C 5.222656 -7.554688 5.15625 -5.300781 5.15625 -2.9375 C 5.15625 -2.351562 5.234375 -1.925781 5.390625 -1.65625 C 5.554688 -1.394531 5.828125 -1.265625 6.203125 -1.265625 C 6.429688 -1.265625 6.644531 -1.269531 6.84375 -1.28125 C 7.039062 -1.300781 7.179688 -1.3125 7.265625 -1.3125 L 7.3125 -1.203125 L 7.078125 0.09375 C 6.898438 0.0703125 6.5625 0.0507812 6.0625 0.03125 C 5.5625 0.0078125 5.007812 0 4.40625 0 C 3.882812 0 3.289062 0.046875 2.625 0.140625 C 1.957031 0.242188 1.519531 0.316406 1.3125 0.359375 Z M 3.953125 -17.453125 C 3.492188 -17.453125 3.132812 -17.601562 2.875 -17.90625 C 2.613281 -18.207031 2.484375 -18.566406 2.484375 -18.984375 C 2.484375 -19.460938 2.65625 -19.878906 3 -20.234375 C 3.34375 -20.585938 3.765625 -20.765625 4.265625 -20.765625 C 4.722656 -20.765625 5.082031 -20.613281 5.34375 -20.3125 C 5.601562 -20.007812 5.734375 -19.648438 5.734375 -19.234375 C 5.734375 -18.753906 5.5625 -18.335938 5.21875 -17.984375 C 4.875 -17.628906 4.453125 -17.453125 3.953125 -17.453125 Z M 3.953125 -17.453125 "/></g></g></g><g fill="#2c2c2c" fill-opacity="1"><g transform="translate(192.075001, 243.456577)"><g><path d="M 7.34375 0.359375 C 5.445312 0.359375 3.925781 -0.238281 2.78125 -1.4375 C 1.644531 -2.632812 1.078125 -4.242188 1.078125 -6.265625 C 1.078125 -7.691406 1.378906 -8.988281 1.984375 -10.15625 C 2.597656 -11.320312 3.429688 -12.238281 4.484375 -12.90625 C 5.535156 -13.582031 6.710938 -13.921875 8.015625 -13.921875 C 8.566406 -13.921875 9.101562 -13.878906 9.625 -13.796875 C 10.144531 -13.722656 10.570312 -13.640625 10.90625 -13.546875 C 11.238281 -13.453125 11.441406 -13.382812 11.515625 -13.34375 L 11.609375 -13.140625 C 11.585938 -13.035156 11.53125 -12.796875 11.4375 -12.421875 C 11.351562 -12.054688 11.257812 -11.566406 11.15625 -10.953125 C 11.0625 -10.347656 11.003906 -9.695312 10.984375 -9 L 9.75 -8.90625 L 9.75 -9.84375 C 9.75 -10.582031 9.523438 -11.175781 9.078125 -11.625 C 8.628906 -12.070312 8.035156 -12.296875 7.296875 -12.296875 C 6.066406 -12.296875 5.125 -11.859375 4.46875 -10.984375 C 3.8125 -10.117188 3.484375 -8.890625 3.484375 -7.296875 C 3.484375 -5.554688 3.847656 -4.179688 4.578125 -3.171875 C 5.304688 -2.160156 6.300781 -1.65625 7.5625 -1.65625 C 8.0625 -1.65625 8.5625 -1.726562 9.0625 -1.875 C 9.5625 -2.019531 9.976562 -2.164062 10.3125 -2.3125 C 10.65625 -2.46875 10.867188 -2.578125 10.953125 -2.640625 L 11.125 -2.578125 L 11.453125 -1.65625 C 11.316406 -1.550781 11.015625 -1.335938 10.546875 -1.015625 C 10.078125 -0.703125 9.535156 -0.394531 8.921875 -0.09375 C 8.316406 0.207031 7.789062 0.359375 7.34375 0.359375 Z M 7.34375 0.359375 "/></g></g></g><g fill="#2c2c2c" fill-opacity="1"><g transform="translate(203.295005, 243.456577)"><g><path d="M 11.15625 0.359375 C 9.539062 0.359375 8.648438 -0.445312 8.484375 -2.0625 L 8.375 -2.09375 C 7.65625 -1.375 7 -0.804688 6.40625 -0.390625 C 5.8125 0.0234375 5.363281 0.234375 5.0625 0.234375 C 3.945312 0.234375 3.03125 -0.113281 2.3125 -0.8125 C 1.59375 -1.507812 1.234375 -2.398438 1.234375 -3.484375 C 1.234375 -4.054688 1.375 -4.5625 1.65625 -5 C 1.945312 -5.445312 2.332031 -5.738281 2.8125 -5.875 L 8.515625 -7.4375 L 8.546875 -8.765625 C 8.546875 -9.765625 8.316406 -10.539062 7.859375 -11.09375 C 7.398438 -11.65625 6.75 -11.9375 5.90625 -11.9375 C 5.34375 -11.9375 4.75 -11.804688 4.125 -11.546875 C 3.507812 -11.285156 2.90625 -10.914062 2.3125 -10.4375 L 2.15625 -10.53125 L 1.796875 -11.8125 C 2.734375 -12.351562 3.675781 -12.835938 4.625 -13.265625 C 5.582031 -13.703125 6.269531 -13.921875 6.6875 -13.921875 C 7.988281 -13.921875 9.007812 -13.578125 9.75 -12.890625 C 10.488281 -12.210938 10.859375 -11.265625 10.859375 -10.046875 C 10.859375 -9.609375 10.789062 -8.707031 10.65625 -7.34375 C 10.425781 -5.144531 10.3125 -3.75 10.3125 -3.15625 C 10.3125 -2.707031 10.421875 -2.363281 10.640625 -2.125 C 10.867188 -1.882812 11.171875 -1.765625 11.546875 -1.765625 C 11.867188 -1.765625 12.195312 -1.835938 12.53125 -1.984375 C 12.875 -2.140625 13.144531 -2.316406 13.34375 -2.515625 L 13.765625 -2.046875 C 13.460938 -1.546875 13.078125 -1.054688 12.609375 -0.578125 C 12.140625 -0.109375 11.65625 0.203125 11.15625 0.359375 Z M 5.578125 -1.796875 C 5.960938 -1.796875 6.410156 -1.929688 6.921875 -2.203125 C 7.429688 -2.472656 7.894531 -2.816406 8.3125 -3.234375 L 8.453125 -6.296875 L 4.375 -5.0625 C 3.800781 -4.882812 3.515625 -4.46875 3.515625 -3.8125 C 3.515625 -3.226562 3.707031 -2.742188 4.09375 -2.359375 C 4.488281 -1.984375 4.984375 -1.796875 5.578125 -1.796875 Z M 5.578125 -1.796875 "/></g></g></g><g fill="#2c2c2c" fill-opacity="1"><g transform="translate(216.074999, 243.456577)"><g><path d="M 1.765625 -1.078125 C 2.367188 -1.140625 2.769531 -1.332031 2.96875 -1.65625 C 3.164062 -1.988281 3.265625 -2.625 3.265625 -3.5625 L 3.265625 -10.171875 C 3.265625 -10.828125 3.175781 -11.296875 3 -11.578125 C 2.820312 -11.859375 2.53125 -12 2.125 -12 C 1.96875 -12 1.832031 -11.988281 1.71875 -11.96875 C 1.613281 -11.945312 1.539062 -11.925781 1.5 -11.90625 L 1.34375 -12.125 L 1.4375 -13.046875 C 2.195312 -13.191406 3 -13.363281 3.84375 -13.5625 C 4.695312 -13.757812 5.242188 -13.890625 5.484375 -13.953125 L 5.703125 -13.765625 C 5.660156 -13.585938 5.597656 -13.171875 5.515625 -12.515625 C 5.441406 -11.867188 5.414062 -11.257812 5.4375 -10.6875 L 5.546875 -10.59375 C 6.148438 -11.53125 6.851562 -12.296875 7.65625 -12.890625 C 8.46875 -13.492188 9.175781 -13.796875 9.78125 -13.796875 C 10.0625 -13.796875 10.273438 -13.78125 10.421875 -13.75 C 10.578125 -13.71875 10.671875 -13.695312 10.703125 -13.6875 L 10.796875 -13.5625 C 10.753906 -13.28125 10.664062 -12.679688 10.53125 -11.765625 C 10.40625 -10.859375 10.332031 -10.023438 10.3125 -9.265625 L 9.15625 -9.1875 C 9.15625 -10 9.097656 -10.539062 8.984375 -10.8125 C 8.867188 -11.082031 8.65625 -11.21875 8.34375 -11.21875 C 7.90625 -11.21875 7.4375 -11.03125 6.9375 -10.65625 C 6.4375 -10.289062 5.972656 -9.800781 5.546875 -9.1875 C 5.523438 -8.601562 5.484375 -7.640625 5.421875 -6.296875 C 5.367188 -4.960938 5.332031 -3.882812 5.3125 -3.0625 C 5.3125 -2.382812 5.410156 -1.921875 5.609375 -1.671875 C 5.804688 -1.429688 6.1875 -1.3125 6.75 -1.3125 C 7.007812 -1.3125 7.269531 -1.320312 7.53125 -1.34375 C 7.789062 -1.363281 7.96875 -1.375 8.0625 -1.375 L 8.09375 -1.265625 L 7.828125 0.0625 C 7.628906 0.0625 7.226562 0.0507812 6.625 0.03125 C 6.03125 0.0078125 5.410156 0 4.765625 0 C 4.023438 0 3.351562 0.015625 2.75 0.046875 C 2.15625 0.078125 1.78125 0.101562 1.625 0.125 Z M 1.765625 -1.078125 "/></g></g></g><g fill="#2c2c2c" fill-opacity="1"><g transform="translate(226.065004, 243.456577)"><g><path d="M 7.375 0.359375 C 6.132812 0.359375 5.035156 0.0820312 4.078125 -0.46875 C 3.117188 -1.019531 2.378906 -1.796875 1.859375 -2.796875 C 1.335938 -3.804688 1.078125 -4.960938 1.078125 -6.265625 C 1.078125 -7.609375 1.378906 -8.867188 1.984375 -10.046875 C 2.597656 -11.222656 3.414062 -12.160156 4.4375 -12.859375 C 5.457031 -13.566406 6.546875 -13.921875 7.703125 -13.921875 C 9.171875 -13.921875 10.285156 -13.550781 11.046875 -12.8125 C 11.804688 -12.070312 12.1875 -10.988281 12.1875 -9.5625 C 12.1875 -8.988281 12.125 -8.5 12 -8.09375 L 11.609375 -7.734375 L 3.328125 -7.734375 C 3.304688 -5.796875 3.691406 -4.300781 4.484375 -3.25 C 5.273438 -2.207031 6.378906 -1.6875 7.796875 -1.6875 C 8.921875 -1.6875 10.140625 -1.992188 11.453125 -2.609375 L 11.640625 -2.546875 L 11.96875 -1.6875 C 11.25 -1.164062 10.453125 -0.691406 9.578125 -0.265625 C 8.710938 0.148438 7.976562 0.359375 7.375 0.359375 Z M 8.875 -9.125 C 9.175781 -9.164062 9.375 -9.234375 9.46875 -9.328125 C 9.570312 -9.429688 9.625 -9.632812 9.625 -9.9375 C 9.625 -10.726562 9.410156 -11.332031 8.984375 -11.75 C 8.554688 -12.175781 7.941406 -12.390625 7.140625 -12.390625 C 6.203125 -12.390625 5.394531 -12.066406 4.71875 -11.421875 C 4.050781 -10.785156 3.628906 -9.925781 3.453125 -8.84375 Z M 8.875 -9.125 "/></g></g></g><g fill="#2c2c2c" fill-opacity="1"><g transform="translate(150.191756, 273.456575)"><g><path d="M 6.15625 -15.59375 L 6 -15.59375 C 5.875 -14.28125 5.660156 -11.804688 5.359375 -8.171875 C 5.066406 -4.546875 4.921875 -2.570312 4.921875 -2.25 C 4.921875 -1.625 5.226562 -1.3125 5.84375 -1.3125 L 7.078125 -1.34375 L 7.140625 -1.234375 L 6.875 0.125 C 6.65625 0.101562 6.257812 0.078125 5.6875 0.046875 C 5.113281 0.015625 4.535156 0 3.953125 0 C 3.453125 0 2.9375 0.03125 2.40625 0.09375 C 1.882812 0.164062 1.539062 0.210938 1.375 0.234375 L 1.53125 -1.140625 C 2.164062 -1.222656 2.625 -1.425781 2.90625 -1.75 C 3.1875 -2.082031 3.367188 -2.648438 3.453125 -3.453125 C 3.648438 -5.328125 3.910156 -7.859375 4.234375 -11.046875 C 4.566406 -14.242188 4.734375 -16.03125 4.734375 -16.40625 C 4.734375 -16.925781 4.53125 -17.316406 4.125 -17.578125 C 3.71875 -17.835938 3.0625 -18 2.15625 -18.0625 L 2.0625 -18.203125 L 2.3125 -19.265625 C 2.570312 -19.242188 3.082031 -19.210938 3.84375 -19.171875 C 4.601562 -19.128906 5.179688 -19.109375 5.578125 -19.109375 C 5.941406 -19.109375 6.335938 -19.125 6.765625 -19.15625 C 7.191406 -19.1875 7.476562 -19.210938 7.625 -19.234375 C 8.414062 -16.648438 9.1875 -14.253906 9.9375 -12.046875 C 10.6875 -9.835938 11.300781 -8.082031 11.78125 -6.78125 C 12.269531 -5.476562 12.570312 -4.664062 12.6875 -4.34375 L 12.84375 -4.34375 C 13.125 -5.082031 13.765625 -6.84375 14.765625 -9.625 C 15.765625 -12.40625 16.851562 -15.585938 18.03125 -19.171875 C 18.03125 -19.191406 18.300781 -19.179688 18.84375 -19.140625 L 20.015625 -19.109375 C 20.390625 -19.109375 20.957031 -19.132812 21.71875 -19.1875 C 22.476562 -19.238281 22.988281 -19.273438 23.25 -19.296875 L 23.3125 -19.171875 L 23.15625 -18.0625 C 22.300781 -17.957031 21.691406 -17.78125 21.328125 -17.53125 C 20.972656 -17.28125 20.796875 -16.90625 20.796875 -16.40625 C 20.796875 -15.96875 20.882812 -14.332031 21.0625 -11.5 C 21.238281 -8.675781 21.40625 -6.234375 21.5625 -4.171875 C 21.664062 -3.347656 21.765625 -2.738281 21.859375 -2.34375 C 21.960938 -1.957031 22.101562 -1.6875 22.28125 -1.53125 C 22.46875 -1.382812 22.722656 -1.3125 23.046875 -1.3125 C 23.222656 -1.3125 23.390625 -1.320312 23.546875 -1.34375 C 23.710938 -1.363281 23.820312 -1.375 23.875 -1.375 L 23.9375 -1.265625 L 23.671875 0.09375 C 23.472656 0.0703125 23.097656 0.0507812 22.546875 0.03125 C 21.992188 0.0078125 21.414062 0 20.8125 0 C 20.28125 0 19.675781 0.03125 19 0.09375 C 18.332031 0.164062 17.898438 0.210938 17.703125 0.234375 L 17.8125 -1.140625 C 18.4375 -1.222656 18.890625 -1.382812 19.171875 -1.625 C 19.453125 -1.863281 19.59375 -2.203125 19.59375 -2.640625 C 19.59375 -3.054688 19.445312 -5.003906 19.15625 -8.484375 C 18.863281 -11.960938 18.664062 -14.332031 18.5625 -15.59375 L 18.421875 -15.59375 L 12.625 0.359375 L 11.90625 0.5625 Z M 6.15625 -15.59375 "/></g></g></g><g fill="#2c2c2c" fill-opacity="1"><g transform="translate(173.80174, 273.456575)"><g><path d="M 6.90625 0.359375 C 5.757812 0.359375 4.742188 0.0820312 3.859375 -0.46875 C 2.984375 -1.03125 2.300781 -1.816406 1.8125 -2.828125 C 1.320312 -3.835938 1.078125 -4.992188 1.078125 -6.296875 C 1.078125 -7.703125 1.378906 -8.988281 1.984375 -10.15625 C 2.597656 -11.320312 3.4375 -12.238281 4.5 -12.90625 C 5.5625 -13.582031 6.742188 -13.921875 8.046875 -13.921875 C 9.160156 -13.921875 10.160156 -13.640625 11.046875 -13.078125 C 11.941406 -12.515625 12.632812 -11.726562 13.125 -10.71875 C 13.613281 -9.707031 13.859375 -8.554688 13.859375 -7.265625 C 13.859375 -5.859375 13.550781 -4.570312 12.9375 -3.40625 C 12.332031 -2.238281 11.5 -1.316406 10.4375 -0.640625 C 9.375 0.0234375 8.195312 0.359375 6.90625 0.359375 Z M 7.734375 -1.109375 C 8.859375 -1.109375 9.75 -1.5625 10.40625 -2.46875 C 11.070312 -3.382812 11.40625 -4.625 11.40625 -6.1875 C 11.40625 -7.363281 11.222656 -8.414062 10.859375 -9.34375 C 10.492188 -10.269531 9.988281 -10.992188 9.34375 -11.515625 C 8.695312 -12.035156 7.960938 -12.296875 7.140625 -12.296875 C 6.015625 -12.296875 5.125 -11.835938 4.46875 -10.921875 C 3.8125 -10.003906 3.484375 -8.753906 3.484375 -7.171875 C 3.484375 -5.992188 3.660156 -4.941406 4.015625 -4.015625 C 4.378906 -3.097656 4.878906 -2.382812 5.515625 -1.875 C 6.160156 -1.363281 6.898438 -1.109375 7.734375 -1.109375 Z M 7.734375 -1.109375 "/></g></g></g><g fill="#2c2c2c" fill-opacity="1"><g transform="translate(187.541733, 273.456575)"><g><path d="M 9.75 -0.875 C 10.351562 -1.03125 10.785156 -1.265625 11.046875 -1.578125 C 11.304688 -1.890625 11.4375 -2.300781 11.4375 -2.8125 L 11.546875 -8.765625 C 11.546875 -9.765625 11.332031 -10.53125 10.90625 -11.0625 C 10.476562 -11.601562 9.863281 -11.875 9.0625 -11.875 C 8.414062 -11.875 7.765625 -11.707031 7.109375 -11.375 C 6.453125 -11.050781 5.875 -10.695312 5.375 -10.3125 C 5.1875 -6.175781 5.09375 -3.71875 5.09375 -2.9375 C 5.09375 -2.320312 5.171875 -1.890625 5.328125 -1.640625 C 5.492188 -1.390625 5.78125 -1.265625 6.1875 -1.265625 C 6.40625 -1.265625 6.613281 -1.269531 6.8125 -1.28125 C 7.007812 -1.300781 7.148438 -1.3125 7.234375 -1.3125 L 7.296875 -1.203125 L 7.015625 0.09375 C 6.835938 0.0703125 6.488281 0.0507812 5.96875 0.03125 C 5.445312 0.0078125 4.890625 0 4.296875 0 C 3.628906 0 3.015625 0.0078125 2.453125 0.03125 C 1.898438 0.0507812 1.519531 0.0625 1.3125 0.0625 L 1.5 -1.171875 C 2.082031 -1.234375 2.488281 -1.382812 2.71875 -1.625 C 2.945312 -1.863281 3.0625 -2.257812 3.0625 -2.8125 L 3.0625 -10.140625 C 3.0625 -10.816406 2.953125 -11.289062 2.734375 -11.5625 C 2.515625 -11.832031 2.132812 -11.96875 1.59375 -11.96875 L 1.265625 -11.96875 L 1.171875 -12.09375 L 1.265625 -13.078125 C 2.117188 -13.222656 2.96875 -13.390625 3.8125 -13.578125 C 4.664062 -13.765625 5.210938 -13.890625 5.453125 -13.953125 L 5.640625 -13.703125 C 5.597656 -13.585938 5.535156 -13.332031 5.453125 -12.9375 C 5.378906 -12.550781 5.332031 -12.148438 5.3125 -11.734375 L 5.375 -11.640625 C 7.613281 -13.160156 9.082031 -13.921875 9.78125 -13.921875 C 10.738281 -13.921875 11.546875 -13.710938 12.203125 -13.296875 C 12.867188 -12.890625 13.34375 -12.304688 13.625 -11.546875 C 14.34375 -12.066406 15.148438 -12.59375 16.046875 -13.125 C 16.953125 -13.65625 17.65625 -13.921875 18.15625 -13.921875 C 19.414062 -13.921875 20.414062 -13.566406 21.15625 -12.859375 C 21.894531 -12.160156 22.265625 -11.222656 22.265625 -10.046875 C 22.265625 -9.847656 22.203125 -8.929688 22.078125 -7.296875 C 21.921875 -5.210938 21.84375 -3.757812 21.84375 -2.9375 C 21.84375 -2.320312 21.921875 -1.890625 22.078125 -1.640625 C 22.234375 -1.390625 22.515625 -1.265625 22.921875 -1.265625 C 23.140625 -1.265625 23.347656 -1.269531 23.546875 -1.28125 C 23.742188 -1.300781 23.882812 -1.3125 23.96875 -1.3125 L 24.03125 -1.203125 L 23.765625 0.09375 C 23.578125 0.0703125 23.222656 0.0507812 22.703125 0.03125 C 22.191406 0.0078125 21.632812 0 21.03125 0 C 20.507812 0 19.929688 0.0234375 19.296875 0.078125 C 18.671875 0.128906 18.257812 0.164062 18.0625 0.1875 L 18.203125 -1.046875 C 18.785156 -1.148438 19.195312 -1.332031 19.4375 -1.59375 C 19.675781 -1.851562 19.796875 -2.257812 19.796875 -2.8125 L 19.921875 -8.765625 C 19.921875 -9.765625 19.703125 -10.53125 19.265625 -11.0625 C 18.835938 -11.601562 18.226562 -11.875 17.4375 -11.875 C 16.394531 -11.875 15.179688 -11.375 13.796875 -10.375 L 13.46875 -2.9375 C 13.46875 -2.351562 13.546875 -1.925781 13.703125 -1.65625 C 13.867188 -1.394531 14.140625 -1.265625 14.515625 -1.265625 C 14.734375 -1.265625 14.941406 -1.269531 15.140625 -1.28125 C 15.347656 -1.300781 15.488281 -1.3125 15.5625 -1.3125 L 15.625 -1.203125 L 15.390625 0.09375 C 15.210938 0.0703125 14.875 0.0507812 14.375 0.03125 C 13.875 0.0078125 13.320312 0 12.71875 0 C 12.195312 0 11.601562 0.046875 10.9375 0.140625 C 10.269531 0.242188 9.832031 0.316406 9.625 0.359375 Z M 9.75 -0.875 "/></g></g></g><g fill="#2c2c2c" fill-opacity="1"><g transform="translate(211.301714, 273.456575)"><g><path d="M 5.125 0.359375 C 4.488281 0.359375 3.90625 0.3125 3.375 0.21875 C 2.84375 0.132812 2.425781 0.046875 2.125 -0.046875 C 1.832031 -0.148438 1.644531 -0.222656 1.5625 -0.265625 L 1.46875 -0.484375 C 1.53125 -0.785156 1.597656 -1.40625 1.671875 -2.34375 C 1.753906 -3.28125 1.804688 -4 1.828125 -4.5 L 2.875 -4.65625 C 2.875 -3.332031 3.09375 -2.398438 3.53125 -1.859375 C 3.976562 -1.316406 4.734375 -1.046875 5.796875 -1.046875 C 6.554688 -1.046875 7.191406 -1.210938 7.703125 -1.546875 C 8.222656 -1.890625 8.484375 -2.3125 8.484375 -2.8125 C 8.484375 -3.3125 8.25 -3.765625 7.78125 -4.171875 C 7.3125 -4.585938 6.390625 -5.164062 5.015625 -5.90625 C 3.867188 -6.488281 3.035156 -7.078125 2.515625 -7.671875 C 1.992188 -8.273438 1.734375 -8.9375 1.734375 -9.65625 C 1.734375 -10.457031 1.972656 -11.179688 2.453125 -11.828125 C 2.941406 -12.484375 3.601562 -12.992188 4.4375 -13.359375 C 5.28125 -13.734375 6.222656 -13.921875 7.265625 -13.921875 C 7.742188 -13.921875 8.203125 -13.882812 8.640625 -13.8125 C 9.078125 -13.738281 9.4375 -13.660156 9.71875 -13.578125 C 10 -13.503906 10.179688 -13.457031 10.265625 -13.4375 L 10.3125 -13.296875 C 10.28125 -13.085938 10.191406 -12.628906 10.046875 -11.921875 C 9.910156 -11.210938 9.8125 -10.445312 9.75 -9.625 L 8.640625 -9.546875 C 8.640625 -9.597656 8.648438 -9.710938 8.671875 -9.890625 C 8.691406 -10.078125 8.703125 -10.25 8.703125 -10.40625 C 8.703125 -11.125 8.503906 -11.648438 8.109375 -11.984375 C 7.722656 -12.316406 7.097656 -12.484375 6.234375 -12.484375 C 5.554688 -12.484375 4.984375 -12.320312 4.515625 -12 C 4.046875 -11.675781 3.8125 -11.285156 3.8125 -10.828125 C 3.8125 -10.347656 4.015625 -9.894531 4.421875 -9.46875 C 4.835938 -9.050781 5.503906 -8.601562 6.421875 -8.125 C 8.035156 -7.269531 9.140625 -6.546875 9.734375 -5.953125 C 10.328125 -5.359375 10.625 -4.6875 10.625 -3.9375 C 10.625 -3.175781 10.375 -2.460938 9.875 -1.796875 C 9.375 -1.140625 8.695312 -0.613281 7.84375 -0.21875 C 6.988281 0.164062 6.082031 0.359375 5.125 0.359375 Z M 5.125 0.359375 "/></g></g></g><g transform="matrix(1, 0, 0, 1, 147, 286)"><g clip-path="url(#3cead0ac92)"><g fill="#2c2c2c" fill-opacity="1"><g transform="translate(0.853067, 6.887789)"><g><path d="M 2.796875 0.046875 C 2.328125 0.046875 1.90625 -0.0507812 1.53125 -0.25 C 1.15625 -0.457031 0.859375 -0.742188 0.640625 -1.109375 C 0.429688 -1.472656 0.328125 -1.882812 0.328125 -2.34375 C 0.328125 -2.789062 0.429688 -3.195312 0.640625 -3.5625 C 0.859375 -3.925781 1.15625 -4.210938 1.53125 -4.421875 C 1.90625 -4.628906 2.328125 -4.734375 2.796875 -4.734375 C 3.160156 -4.734375 3.492188 -4.671875 3.796875 -4.546875 C 4.109375 -4.421875 4.367188 -4.238281 4.578125 -4 L 4.140625 -3.578125 C 3.796875 -3.953125 3.359375 -4.140625 2.828125 -4.140625 C 2.484375 -4.140625 2.171875 -4.0625 1.890625 -3.90625 C 1.609375 -3.75 1.382812 -3.53125 1.21875 -3.25 C 1.0625 -2.976562 0.984375 -2.675781 0.984375 -2.34375 C 0.984375 -2 1.0625 -1.691406 1.21875 -1.421875 C 1.382812 -1.148438 1.609375 -0.9375 1.890625 -0.78125 C 2.171875 -0.625 2.484375 -0.546875 2.828125 -0.546875 C 3.347656 -0.546875 3.785156 -0.734375 4.140625 -1.109375 L 4.578125 -0.6875 C 4.367188 -0.445312 4.109375 -0.265625 3.796875 -0.140625 C 3.492188 -0.015625 3.160156 0.046875 2.796875 0.046875 Z M 2.796875 0.046875 "/></g></g></g><g fill="#2c2c2c" fill-opacity="1"><g transform="translate(6.92836, 6.887789)"><g><path d="M 2.8125 0.046875 C 2.34375 0.046875 1.914062 -0.0507812 1.53125 -0.25 C 1.15625 -0.457031 0.859375 -0.742188 0.640625 -1.109375 C 0.429688 -1.484375 0.328125 -1.894531 0.328125 -2.34375 C 0.328125 -2.789062 0.429688 -3.195312 0.640625 -3.5625 C 0.859375 -3.925781 1.15625 -4.210938 1.53125 -4.421875 C 1.914062 -4.628906 2.34375 -4.734375 2.8125 -4.734375 C 3.28125 -4.734375 3.703125 -4.628906 4.078125 -4.421875 C 4.460938 -4.210938 4.757812 -3.925781 4.96875 -3.5625 C 5.1875 -3.195312 5.296875 -2.789062 5.296875 -2.34375 C 5.296875 -1.882812 5.1875 -1.472656 4.96875 -1.109375 C 4.757812 -0.742188 4.460938 -0.457031 4.078125 -0.25 C 3.703125 -0.0507812 3.28125 0.046875 2.8125 0.046875 Z M 2.8125 -0.546875 C 3.15625 -0.546875 3.460938 -0.625 3.734375 -0.78125 C 4.015625 -0.9375 4.234375 -1.148438 4.390625 -1.421875 C 4.546875 -1.691406 4.625 -2 4.625 -2.34375 C 4.625 -2.675781 4.546875 -2.976562 4.390625 -3.25 C 4.234375 -3.53125 4.015625 -3.75 3.734375 -3.90625 C 3.460938 -4.0625 3.15625 -4.140625 2.8125 -4.140625 C 2.46875 -4.140625 2.15625 -4.0625 1.875 -3.90625 C 1.601562 -3.75 1.382812 -3.53125 1.21875 -3.25 C 1.0625 -2.976562 0.984375 -2.675781 0.984375 -2.34375 C 0.984375 -2 1.0625 -1.691406 1.21875 -1.421875 C 1.382812 -1.148438 1.601562 -0.9375 1.875 -0.78125 C 2.15625 -0.625 2.46875 -0.546875 2.8125 -0.546875 Z M 2.8125 -0.546875 "/></g></g></g><g fill="#2c2c2c" fill-opacity="1"><g transform="translate(13.739549, 6.887789)"><g><path d="M 4.765625 -4.6875 L 2.71875 0 L 2.046875 0 L 0 -4.6875 L 0.71875 -4.6875 L 2.40625 -0.828125 L 4.09375 -4.6875 Z M 4.765625 -4.6875 "/></g></g></g><g fill="#2c2c2c" fill-opacity="1"><g transform="translate(19.741249, 6.887789)"><g><path d="M 4.09375 -0.578125 L 4.09375 0 L 0.703125 0 L 0.703125 -4.6875 L 4 -4.6875 L 4 -4.09375 L 1.375 -4.09375 L 1.375 -2.65625 L 3.71875 -2.65625 L 3.71875 -2.09375 L 1.375 -2.09375 L 1.375 -0.578125 Z M 4.09375 -0.578125 "/></g></g></g><g fill="#2c2c2c" fill-opacity="1"><g transform="translate(25.562322, 6.887789)"><g><path d="M 3.828125 0 L 2.828125 -1.4375 C 2.703125 -1.425781 2.601562 -1.421875 2.53125 -1.421875 L 1.375 -1.421875 L 1.375 0 L 0.703125 0 L 0.703125 -4.6875 L 2.53125 -4.6875 C 3.132812 -4.6875 3.609375 -4.539062 3.953125 -4.25 C 4.304688 -3.957031 4.484375 -3.554688 4.484375 -3.046875 C 4.484375 -2.679688 4.394531 -2.375 4.21875 -2.125 C 4.039062 -1.875 3.785156 -1.691406 3.453125 -1.578125 L 4.5625 0 Z M 2.5 -2 C 2.925781 -2 3.25 -2.085938 3.46875 -2.265625 C 3.695312 -2.453125 3.8125 -2.710938 3.8125 -3.046875 C 3.8125 -3.390625 3.695312 -3.648438 3.46875 -3.828125 C 3.25 -4.003906 2.925781 -4.09375 2.5 -4.09375 L 1.375 -4.09375 L 1.375 -2 Z M 2.5 -2 "/></g></g></g><g fill="#2c2c2c" fill-opacity="1"><g transform="translate(31.76473, 6.887789)"><g><path d="M 3.6875 -1.171875 L 1.203125 -1.171875 L 0.6875 0 L 0 0 L 2.109375 -4.6875 L 2.78125 -4.6875 L 4.90625 0 L 4.203125 0 Z M 3.453125 -1.703125 L 2.4375 -4 L 1.4375 -1.703125 Z M 3.453125 -1.703125 "/></g></g></g><g fill="#2c2c2c" fill-opacity="1"><g transform="translate(37.933679, 6.887789)"><g><path d="M 3.953125 -2.375 L 4.59375 -2.375 L 4.59375 -0.546875 C 4.351562 -0.347656 4.078125 -0.195312 3.765625 -0.09375 C 3.460938 0 3.144531 0.046875 2.8125 0.046875 C 2.34375 0.046875 1.914062 -0.0507812 1.53125 -0.25 C 1.15625 -0.457031 0.859375 -0.742188 0.640625 -1.109375 C 0.429688 -1.472656 0.328125 -1.882812 0.328125 -2.34375 C 0.328125 -2.789062 0.429688 -3.195312 0.640625 -3.5625 C 0.859375 -3.9375 1.15625 -4.222656 1.53125 -4.421875 C 1.914062 -4.628906 2.347656 -4.734375 2.828125 -4.734375 C 3.203125 -4.734375 3.539062 -4.671875 3.84375 -4.546875 C 4.15625 -4.421875 4.414062 -4.242188 4.625 -4.015625 L 4.21875 -3.59375 C 3.84375 -3.957031 3.390625 -4.140625 2.859375 -4.140625 C 2.503906 -4.140625 2.179688 -4.0625 1.890625 -3.90625 C 1.609375 -3.75 1.382812 -3.535156 1.21875 -3.265625 C 1.0625 -2.992188 0.984375 -2.6875 0.984375 -2.34375 C 0.984375 -2 1.0625 -1.691406 1.21875 -1.421875 C 1.382812 -1.148438 1.609375 -0.9375 1.890625 -0.78125 C 2.179688 -0.625 2.5 -0.546875 2.84375 -0.546875 C 3.269531 -0.546875 3.640625 -0.644531 3.953125 -0.84375 Z M 3.953125 -2.375 "/></g></g></g><g fill="#2c2c2c" fill-opacity="1"><g transform="translate(44.437135, 6.887789)"><g><path d="M 4.09375 -0.578125 L 4.09375 0 L 0.703125 0 L 0.703125 -4.6875 L 4 -4.6875 L 4 -4.09375 L 1.375 -4.09375 L 1.375 -2.65625 L 3.71875 -2.65625 L 3.71875 -2.09375 L 1.375 -2.09375 L 1.375 -0.578125 Z M 4.09375 -0.578125 "/></g></g></g><g fill="#2c2c2c" fill-opacity="1"><g transform="translate(50.258208, 6.887789)"><g/></g></g><g fill="#2c2c2c" fill-opacity="1"><g transform="translate(53.396577, 6.887789)"><g><path d="M 5.046875 0 L 5.03125 -3.40625 L 3.34375 -0.5625 L 3.03125 -0.5625 L 1.34375 -3.390625 L 1.34375 0 L 0.703125 0 L 0.703125 -4.6875 L 1.25 -4.6875 L 3.203125 -1.390625 L 5.125 -4.6875 L 5.671875 -4.6875 L 5.6875 0 Z M 5.046875 0 "/></g></g></g><g fill="#2c2c2c" fill-opacity="1"><g transform="translate(61.124315, 6.887789)"><g><path d="M 3.6875 -1.171875 L 1.203125 -1.171875 L 0.6875 0 L 0 0 L 2.109375 -4.6875 L 2.78125 -4.6875 L 4.90625 0 L 4.203125 0 Z M 3.453125 -1.703125 L 2.4375 -4 L 1.4375 -1.703125 Z M 3.453125 -1.703125 "/></g></g></g><g fill="#2c2c2c" fill-opacity="1"><g transform="translate(67.360173, 6.887789)"><g><path d="M 0.703125 -4.6875 L 2.671875 -4.6875 C 3.171875 -4.6875 3.609375 -4.585938 3.984375 -4.390625 C 4.367188 -4.191406 4.664062 -3.914062 4.875 -3.5625 C 5.09375 -3.207031 5.203125 -2.800781 5.203125 -2.34375 C 5.203125 -1.882812 5.09375 -1.476562 4.875 -1.125 C 4.664062 -0.769531 4.367188 -0.492188 3.984375 -0.296875 C 3.609375 -0.0976562 3.171875 0 2.671875 0 L 0.703125 0 Z M 2.640625 -0.578125 C 3.015625 -0.578125 3.34375 -0.648438 3.625 -0.796875 C 3.914062 -0.941406 4.140625 -1.144531 4.296875 -1.40625 C 4.453125 -1.675781 4.53125 -1.988281 4.53125 -2.34375 C 4.53125 -2.6875 4.453125 -2.988281 4.296875 -3.25 C 4.140625 -3.519531 3.914062 -3.726562 3.625 -3.875 C 3.34375 -4.019531 3.015625 -4.09375 2.640625 -4.09375 L 1.375 -4.09375 L 1.375 -0.578125 Z M 2.640625 -0.578125 "/></g></g></g><g fill="#2c2c2c" fill-opacity="1"><g transform="translate(74.224892, 6.887789)"><g><path d="M 4.09375 -0.578125 L 4.09375 0 L 0.703125 0 L 0.703125 -4.6875 L 4 -4.6875 L 4 -4.09375 L 1.375 -4.09375 L 1.375 -2.65625 L 3.71875 -2.65625 L 3.71875 -2.09375 L 1.375 -2.09375 L 1.375 -0.578125 Z M 4.09375 -0.578125 "/></g></g></g><g fill="#2c2c2c" fill-opacity="1"><g transform="translate(23.511907, 16.221117)"><g><path d="M 2.0625 0.046875 C 1.707031 0.046875 1.367188 -0.00390625 1.046875 -0.109375 C 0.722656 -0.222656 0.46875 -0.363281 0.28125 -0.53125 L 0.515625 -1.0625 C 0.703125 -0.894531 0.929688 -0.757812 1.203125 -0.65625 C 1.484375 -0.5625 1.769531 -0.515625 2.0625 -0.515625 C 2.445312 -0.515625 2.734375 -0.578125 2.921875 -0.703125 C 3.117188 -0.835938 3.21875 -1.015625 3.21875 -1.234375 C 3.21875 -1.398438 3.164062 -1.53125 3.0625 -1.625 C 2.957031 -1.726562 2.828125 -1.804688 2.671875 -1.859375 C 2.523438 -1.910156 2.3125 -1.972656 2.03125 -2.046875 C 1.675781 -2.128906 1.390625 -2.210938 1.171875 -2.296875 C 0.953125 -2.378906 0.765625 -2.507812 0.609375 -2.6875 C 0.460938 -2.863281 0.390625 -3.097656 0.390625 -3.390625 C 0.390625 -3.640625 0.453125 -3.863281 0.578125 -4.0625 C 0.710938 -4.269531 0.910156 -4.429688 1.171875 -4.546875 C 1.441406 -4.671875 1.78125 -4.734375 2.1875 -4.734375 C 2.457031 -4.734375 2.722656 -4.695312 2.984375 -4.625 C 3.253906 -4.550781 3.488281 -4.445312 3.6875 -4.3125 L 3.46875 -3.78125 C 3.269531 -3.90625 3.054688 -4 2.828125 -4.0625 C 2.609375 -4.132812 2.394531 -4.171875 2.1875 -4.171875 C 1.800781 -4.171875 1.515625 -4.097656 1.328125 -3.953125 C 1.140625 -3.816406 1.046875 -3.640625 1.046875 -3.421875 C 1.046875 -3.265625 1.097656 -3.132812 1.203125 -3.03125 C 1.304688 -2.925781 1.4375 -2.847656 1.59375 -2.796875 C 1.757812 -2.742188 1.976562 -2.6875 2.25 -2.625 C 2.601562 -2.539062 2.882812 -2.453125 3.09375 -2.359375 C 3.3125 -2.273438 3.492188 -2.144531 3.640625 -1.96875 C 3.796875 -1.800781 3.875 -1.570312 3.875 -1.28125 C 3.875 -1.03125 3.804688 -0.800781 3.671875 -0.59375 C 3.546875 -0.394531 3.34375 -0.238281 3.0625 -0.125 C 2.789062 -0.0078125 2.457031 0.046875 2.0625 0.046875 Z M 2.0625 0.046875 "/></g></g></g><g fill="#2c2c2c" fill-opacity="1"><g transform="translate(29.005167, 16.221117)"><g><path d="M 0.703125 -4.6875 L 1.375 -4.6875 L 1.375 0 L 0.703125 0 Z M 0.703125 -4.6875 "/></g></g></g><g fill="#2c2c2c" fill-opacity="1"><g transform="translate(32.417828, 16.221117)"><g><path d="M 5.046875 0 L 5.03125 -3.40625 L 3.34375 -0.5625 L 3.03125 -0.5625 L 1.34375 -3.390625 L 1.34375 0 L 0.703125 0 L 0.703125 -4.6875 L 1.25 -4.6875 L 3.203125 -1.390625 L 5.125 -4.6875 L 5.671875 -4.6875 L 5.6875 0 Z M 5.046875 0 "/></g></g></g><g fill="#2c2c2c" fill-opacity="1"><g transform="translate(40.145566, 16.221117)"><g><path d="M 2.53125 -4.6875 C 3.132812 -4.6875 3.609375 -4.539062 3.953125 -4.25 C 4.304688 -3.957031 4.484375 -3.554688 4.484375 -3.046875 C 4.484375 -2.535156 4.304688 -2.132812 3.953125 -1.84375 C 3.609375 -1.5625 3.132812 -1.421875 2.53125 -1.421875 L 1.375 -1.421875 L 1.375 0 L 0.703125 0 L 0.703125 -4.6875 Z M 2.5 -2 C 2.925781 -2 3.25 -2.085938 3.46875 -2.265625 C 3.695312 -2.453125 3.8125 -2.710938 3.8125 -3.046875 C 3.8125 -3.390625 3.695312 -3.648438 3.46875 -3.828125 C 3.25 -4.003906 2.925781 -4.09375 2.5 -4.09375 L 1.375 -4.09375 L 1.375 -2 Z M 2.5 -2 "/></g></g></g><g fill="#2c2c2c" fill-opacity="1"><g transform="translate(46.247615, 16.221117)"><g><path d="M 0.703125 -4.6875 L 1.375 -4.6875 L 1.375 -0.578125 L 3.90625 -0.578125 L 3.90625 0 L 0.703125 0 Z M 0.703125 -4.6875 "/></g></g></g><g fill="#2c2c2c" fill-opacity="1"><g transform="translate(51.560248, 16.221117)"><g><path d="M 4.09375 -0.578125 L 4.09375 0 L 0.703125 0 L 0.703125 -4.6875 L 4 -4.6875 L 4 -4.09375 L 1.375 -4.09375 L 1.375 -2.65625 L 3.71875 -2.65625 L 3.71875 -2.09375 L 1.375 -2.09375 L 1.375 -0.578125 Z M 4.09375 -0.578125 "/></g></g></g></g></g></svg>